# xmcd CD database file
#
# Track frame offsets:
#	150
#	20438
#	46065
#	65747
#	93484
#	103457
#	122915
#	137635
#	155363
#	169394
#
# Disc length: 2476 seconds
#
# Revision: 0
# Processed by: cddbd v1.5.2PL0 Copyright (c) Steve Scherf et al.
# Submitted via: CDex 1.79
#
DISCID=8c09aa0a
DTITLE=Jamie Saft, Steve Swallow and Bobby Previte - You Don't Know The Life
DYEAR=2015
DGENRE=Jazz
TTITLE0=Re:Person I Knew
TTITLE1=Dark Squares
TTITLE2=Water From Breath
TTITLE3=You Don't Know the Life
TTITLE4=Ode To a Green Frisbee
TTITLE5=The Cloak
TTITLE6=Stable Manifold
TTITLE7=The Break of the Flat Land
TTITLE8=Moonlight in Vermont
TTITLE9=Jamie Saft, Steve Swallow and Bobby Previte - Alfie
EXTD=YEAR: 2015
EXTT0=
EXTT1=
EXTT2=
EXTT3=
EXTT4=
EXTT5=
EXTT6=
EXTT7=
EXTT8=
EXTT9=
PLAYORDER=
